# xmcd
#
# Track frame offsets:
#	150
#	8862
#	18135
#	35695
#	43325
#	58820
#	68272
#	76427
#
# Disc length: 1132
#
# Revision: 1
# Processed by: cddbd v1.5.1PL0 Copyright (c) Steve Scherf et al.
# Submitted via: dBpowerAMP V4.0
# Normalized: r0:TSWAP
#
DISCID=5e046a08
DTITLE=Various Artist - House of Blues Hotel
DYEAR=2002
DGENRE=Blues
TTITLE0=Kay Starr - Pretty Baby
TTITLE1=Oscar Moore Trio - Limehouse Blues
TTITLE2=Jack Teagarden - Beale Street Blues
TTITLE3=Miff Mole - Barnyard Blues
TTITLE4=Max Kaminsky - Jazz Me Blues
TTITLE5=Art Hodes - Really the Blues
TTITLE6=Oscar Moore Trio - Peg O' My Heart
TTITLE7=Helen Forrest - Baby Won't You Please Come Home
EXTD=House of Blues Hotel blues compilation. Free CD when you stay at the hotel.
EXTT0=
EXTT1=
EXTT2=
EXTT3=
EXTT4=
EXTT5=
EXTT6=
EXTT7=
PLAYORDER=
